<?xml version="1.0" encoding="UTF-8"?>
<svg width="16px" height="16px" viewBox="0 0 16 16" version="1.1" xmlns="http://www.w3.org/2000/svg" xmlns:xlink="http://www.w3.org/1999/xlink">
    <title>下载</title>
    <g id="三维独立应用25.4.9" stroke="none" stroke-width="1" fill="none" fill-rule="evenodd">
        <g id="建设-质量中心" transform="translate(-1232, -557)" fill-rule="nonzero">
            <g id="下载" transform="translate(1232, 557)">
                <rect id="矩形" fill="#000000" opacity="0" x="0" y="0" width="16" height="16"></rect>
                <path d="M7.65867187,10.8880469 C7.74778125,10.9771563 7.865375,11.0226875 7.9829375,11.0208534 C8.1005,11.0208534 8.21809375,10.9771875 8.30910937,10.8880469 L11.1175313,8.079625 C11.2957813,7.901375 11.2957813,7.61314062 11.1175313,7.43678125 C11.0284219,7.34767188 10.9127344,7.30403125 10.7951719,7.30403125 C10.6776094,7.30403125 10.5619219,7.34764063 10.4728125,7.43678125 L8.43809375,9.4715 L8.43809375,1.91854687 C8.43809375,1.66632813 8.2351875,1.4634375 7.98298438,1.4634375 C7.73078125,1.4634375 7.527875,1.66634375 7.527875,1.91854687 L7.527875,9.46959375 L5.49315625,7.434875 C5.40404688,7.34576563 5.28835937,7.302125 5.17079688,7.302125 C5.05323437,7.302125 4.93754688,7.34573438 4.8484375,7.434875 C4.6701875,7.613125 4.6701875,7.90135938 4.8484375,8.07771875 L7.65875,10.8880313 L7.65867187,10.8880469 Z M13.7969844,7.76865493 C13.6761928,7.7683649 13.5602646,7.81622023 13.4748518,7.90163303 C13.389439,7.98704583 13.3415837,8.10297403 13.341875,8.22376563 C13.341875,11.1782031 10.9392656,13.5807969 7.98484375,13.5807969 C5.03042188,13.5807969 2.6278125,11.1781875 2.6278125,8.22376563 C2.6278125,7.97154687 2.42490625,7.76865493 2.17270312,7.76865493 C1.9205,7.76865493 1.71759375,7.9715625 1.71759375,8.22376563 C1.71759375,9.06951562 1.88257812,9.89060937 2.210625,10.6642969 C2.52540625,11.4114531 2.978625,12.0808281 3.55320312,12.6573125 C4.12778125,13.2318906 4.7990625,13.6850937 5.54621875,13.9998906 C6.31990625,14.3260625 7.141,14.4929219 7.98675,14.4929219 C8.8325,14.4929219 9.65359375,14.3279375 10.4272813,13.9998906 C11.1744375,13.6851094 11.8438125,13.2318906 12.4202969,12.6573125 C12.994875,12.0827344 13.4480781,11.4114531 13.762875,10.6642969 C14.0890469,9.89060937 14.2559063,9.06951562 14.2559063,8.22376563 C14.252125,7.97345313 14.0473281,7.76865493 13.797,7.76865493 L13.7969844,7.76865493 Z" id="形状" fill="#15C1FF"></path>
            </g>
        </g>
    </g>
</svg>