<?xml version="1.0" encoding="UTF-8"?>
<svg width="43px" height="44px" viewBox="0 0 43 44" version="1.1" xmlns="http://www.w3.org/2000/svg" xmlns:xlink="http://www.w3.org/1999/xlink">
    <title>形状</title>
    <defs>
        <path d="M25.1124275,34.384615 C24.637675,34.384615 24.2528121,33.9898838 24.2528121,33.5029582 L24.2528121,29.0946742 C24.2528121,28.8608443 24.3433785,28.6365914 24.5045876,28.4712487 C24.6657968,28.305906 24.8844433,28.2130174 25.1124275,28.2130174 L27.7282371,28.2130174 L27.7282371,13.2248519 L17.3243122,13.2248519 L17.3243122,16.7514791 L19.1570122,16.7514791 C19.6317646,16.7514791 20.0166276,17.1462103 20.0166276,17.6331359 L20.0166276,23.1540707 C20.0166276,23.3879007 19.9260612,23.6121535 19.7648521,23.7774962 C19.6036429,23.942839 19.3849964,24.0357276 19.1570122,24.0357276 L13.7741007,24.0357276 C13.5461166,24.0357276 13.32747,23.942839 13.1662608,23.7774963 C13.0050517,23.6121535 12.9144853,23.3879007 12.9144853,23.1540707 L12.9144853,17.6331359 C12.9144853,17.399306 13.0050517,17.1750531 13.1662609,17.0097104 C13.32747,16.8443677 13.5461166,16.7514791 13.7741007,16.7514791 L15.6050815,16.7514791 L15.6050815,13.2248519 L13.1147757,13.2248519 C12.1652708,13.2248519 11.395545,12.4353895 11.395545,11.4615384 L11.395545,8.81656797 C11.395545,7.84271676 12.1652708,7.05325437 13.1147757,7.05325437 L14.8941796,7.05325437 L27.533964,0.881656822 L27.7282371,0.881656822 C27.7282371,0.647826898 27.8188034,0.423574035 27.9800126,0.258231307 C28.1412218,0.0928885783 28.3598683,0 28.5878525,0 L33.7455447,0 C33.9735289,0 34.1921754,0.0928885783 34.3533846,0.258231307 C34.5145937,0.423574035 34.6051601,0.647826898 34.6051601,0.881656822 L34.8905524,0.881656822 L42.9442888,7.05325437 L44.0609292,7.05325437 C45.0104341,7.05325437 45.78016,7.84271676 45.78016,8.81656797 L45.78016,11.4615384 C45.78016,12.4353895 45.0104341,13.2248519 44.0609292,13.2248519 L34.6051601,13.2248519 L34.6051601,28.2130174 L37.1470427,28.2130174 C37.3750269,28.2130174 37.5936734,28.305906 37.7548826,28.4712487 C37.9160918,28.6365914 38.0066581,28.8608443 38.0066581,29.0946742 L38.0066581,33.5029582 C38.0066581,33.7367881 37.9160918,33.961041 37.7548826,34.1263837 C37.5936734,34.2917264 37.3750269,34.384615 37.1470427,34.384615 L25.1124275,34.384615 Z M34.6051601,2.86538461 L34.6051601,7.05325437 L40.0705946,7.05325437 L34.6051601,2.86538461 Z M27.7282371,2.73842603 L18.8922506,7.05325437 L27.7282371,7.05325437 L27.7282371,2.73842603 Z" id="path-1"></path>
        <filter x="-17.4%" y="-17.4%" width="134.9%" height="134.9%" filterUnits="objectBoundingBox" id="filter-2">
            <feOffset dx="0" dy="0" in="SourceAlpha" result="shadowOffsetOuter1"></feOffset>
            <feGaussianBlur stdDeviation="2" in="shadowOffsetOuter1" result="shadowBlurOuter1"></feGaussianBlur>
            <feColorMatrix values="0 0 0 0 0.00482088415   0 0 0 0 0.533836006   0 0 0 0 1  0 0 0 0.778682255 0" type="matrix" in="shadowBlurOuter1"></feColorMatrix>
        </filter>
    </defs>
    <g id="三维独立应用25.4.9" stroke="none" stroke-width="1" fill="none" fill-rule="evenodd">
        <g id="建设-管控中心-1" transform="translate(-1579, -428)" fill-rule="nonzero">
            <g id="形状" transform="translate(1572, 432.7152)">
                <use fill="black" fill-opacity="1" filter="url(#filter-2)" xlink:href="#path-1"></use>
                <use fill="#93D1FF" xlink:href="#path-1"></use>
            </g>
        </g>
    </g>
</svg>