<?xml version="1.0" encoding="UTF-8"?>
<svg width="25px" height="24px" viewBox="0 0 25 24" version="1.1" xmlns="http://www.w3.org/2000/svg" xmlns:xlink="http://www.w3.org/1999/xlink">
    <title>浇筑icon</title>
    <g id="三维独立应用" stroke="none" stroke-width="1" fill="none" fill-rule="evenodd">
        <g id="温控面板1" transform="translate(-1531, -122)">
            <g id="浇筑icon" transform="translate(1531.2799, 122)">
                <rect id="矩形" fill="#000000" fill-rule="nonzero" opacity="0" x="0" y="0" width="24" height="24"></rect>
                <g id="编组" transform="translate(0, 3)">
                    <path d="M13.4222324,14.9242125 L14.0235675,11.1931594 C14.0235675,11.0439172 14.0987343,10.9692962 14.1739012,10.8946751 L17.4060771,8.65604325 C17.6315777,8.50680112 18.4584134,8.50680112 18.683914,8.73066432 C18.7590809,8.80528537 18.7590809,8.87990645 18.7590809,9.02914855 L18.7590809,9.25301176 L19.4355828,10.5961909 L19.961751,9.47687494 L17.3309102,0 L11.3175598,0 L11.3175598,7.01437986 L10.3403903,5.96968499 C10.3403903,5.96968499 10.3403903,5.89506394 10.2652235,5.89506394 C9.96455593,5.59657969 9.51355467,5.67120076 9.21288712,5.96968499 L8.23571769,7.01437986 L7.25854824,5.96968499 C7.25854824,5.96968499 7.25854824,5.89506394 7.18338135,5.89506394 C6.88271382,5.59657969 6.43171256,5.67120076 6.13104503,5.96968499 L5.15387558,7.01437986 L4.17670616,5.96968499 C4.17670616,5.96968499 4.17670616,5.89506394 4.10153927,5.89506394 C3.80087174,5.59657969 3.34987048,5.67120076 3.04920295,5.96968499 L2.0720335,7.01437986 L1.35300383,5.96968499 L1.35300383,5.89506394 C1.0523363,5.59657969 0.60133504,5.67120076 0.300667513,5.96968499 C0,6.26816925 0,6.79051668 0.300667513,7.08900094 L1.54586534,8.73066432 C1.69619911,8.87990645 1.92169974,8.9545275 2.0720335,8.9545275 C2.29753413,8.9545275 2.4478679,8.87990645 2.59820166,8.73066432 L3.57537111,7.68596943 L4.55254056,8.73066432 C4.55254056,8.73066432 4.55254056,8.80528537 4.62770743,8.80528537 C4.92837495,9.10376963 5.37937622,9.02914855 5.68004374,8.73066432 L6.65721319,7.68596943 L7.63438264,8.73066432 C7.63438264,8.73066432 7.63438264,8.80528537 7.70954951,8.80528537 C8.01021704,9.10376963 8.4612183,9.02914855 8.76188585,8.73066432 L9.73905527,7.68596943 L10.7162247,8.73066432 C10.8665585,8.87990645 11.0168922,8.9545275 11.2423929,8.9545275 L11.2423929,11.1185383 L10.2652235,10.0738435 C10.2652235,10.0738435 10.2652235,9.9992224 10.1900566,9.99922237 C9.88938904,9.70073812 9.43838777,9.77535919 9.13772025,10.0738435 L8.1605508,11.1185383 L7.18338135,10.0738435 C7.18338135,10.0738435 7.18338135,9.9992224 7.10821448,9.99922237 C6.80754695,9.70073812 6.35654569,9.77535919 6.05587816,10.0738435 L5.07870872,11.1185383 L4.10153927,10.0738435 C4.10153927,10.0738435 4.10153927,9.9992224 4.0263724,9.99922237 C3.72570487,9.70073812 3.27470361,9.77535919 2.97403606,10.0738435 L1.99686663,11.1185383 L1.35300383,10.0738435 C1.35300383,10.0738435 1.35300383,9.9992224 1.27783696,9.99922237 C0.977169435,9.70073812 0.526168172,9.77535919 0.225500645,10.0738435 C-0.0751668817,10.3723277 -0.0751668817,10.8946751 0.225500645,11.1931594 L1.47069848,12.8348228 C1.62103224,12.9840649 1.84653287,13.0586859 1.99686663,13.0586859 C2.22236727,13.0586859 2.37270103,12.9840649 2.52303479,12.8348228 L3.50020424,11.7901279 L4.47737366,12.8348228 C4.47737366,12.8348228 4.47737366,12.9094438 4.55254056,12.9094438 C4.85320808,13.2079281 5.30420935,13.133307 5.60487687,12.8348228 L6.58204632,11.7901279 L7.55921577,12.8348228 C7.55921577,12.8348228 7.55921577,12.9094438 7.63438264,12.9094438 C7.93505017,13.2079281 8.38605143,13.133307 8.68671896,12.8348228 L9.66388841,11.7901279 L10.6410579,12.8348228 C10.7913916,12.9840649 10.9417254,13.0586859 11.167226,13.0586859 L11.167226,15.2226968 L10.3403903,14.1780019 C10.3403903,14.1780019 10.3403903,14.1033808 10.2652235,14.1033808 C9.96455593,13.8048966 9.51355467,13.8795177 9.21288712,14.1780019 L8.23571769,15.2226968 L7.25854824,14.1780019 C7.25854824,14.1780019 7.25854824,14.1033808 7.18338135,14.1033808 C6.88271382,13.8048966 6.43171256,13.8795177 6.13104503,14.1780019 L5.15387558,15.2226968 L4.17670616,14.1780019 C4.17670616,14.1780019 4.17670616,14.1033808 4.10153927,14.1033808 C3.80087174,13.8048966 3.34987048,13.8795177 3.04920295,14.1780019 L2.0720335,15.2226968 L1.35300383,14.1780019 C1.35300383,14.1780019 1.35300383,14.1033808 1.27783696,14.1033808 C0.977169435,13.8048966 0.526168172,13.8795177 0.225500645,14.1780019 C-0.0751668817,14.4764861 -0.0751668817,14.9988336 0.225500645,15.2973178 L1.47069848,16.9389812 C1.62103224,17.0882233 1.84653287,17.1628444 1.99686663,17.1628444 C2.22236727,17.1628444 2.37270103,17.0882233 2.52303479,16.9389812 L3.50020424,15.8942863 L4.47737366,16.9389812 C4.47737366,16.9389812 4.47737366,17.0136023 4.55254056,17.0136023 C4.85320808,17.3120865 5.30420935,17.2374654 5.60487687,16.9389812 L6.58204632,15.8942863 L7.55921577,16.9389812 C7.55921577,16.9389812 7.55921577,17.0136023 7.63438264,17.0136023 C7.93505017,17.3120865 8.38605143,17.2374654 8.68671896,16.9389812 L9.66388841,15.8942863 L10.6410579,16.9389812 C10.7913916,17.0882233 10.9417254,17.1628444 11.167226,17.1628444 L11.167226,17.9836761 L16.8799089,17.9836761 L16.4289076,17.3867076 L13.5725662,15.2226968 C13.4222324,15.1480757 13.4222324,14.9988336 13.4222324,14.9242125 Z" id="形状" fill="#F6FBFF"></path>
                    <path d="M23.4945944,11.4170226 L21.2395879,9.62611707 C21.1644211,9.55149602 21.0892542,9.55149602 21.0140873,9.55149602 C20.7885867,9.55149602 20.6382529,9.70073814 20.6382529,9.84998024 L20.6382529,11.3424015 L19.3604159,12.3870964 L18.082579,11.3424015 L18.082579,9.84998024 C18.082579,9.77535919 18.082579,9.70073812 18.0074121,9.62611707 C17.8570783,9.47687494 17.6315777,9.47687494 17.4812439,9.55149602 L15.2262375,11.3424015 C15.1510707,11.4170226 15.0759038,11.4916436 15.0759038,11.5662647 L15.0759038,14.1780019 C15.0759038,14.2526229 15.1510706,14.4018651 15.2262375,14.4018651 L17.4060771,16.0435284 L17.4060771,17.1628444 C17.4060771,17.3120865 17.5564108,17.4613286 17.7819115,17.4613286 L21.0140873,17.4613286 C21.2395879,17.4613286 21.3899217,17.3120865 21.3899217,17.1628444 L21.3899217,16.1181495 L23.5697612,14.4764861 C23.6449281,14.4018651 23.720095,14.327244 23.720095,14.252623 L23.720095,11.7901279 C23.6449281,11.5662647 23.5697612,11.4916436 23.4945944,11.4170226 Z" id="路径" fill="#5CC1FF"></path>
                </g>
            </g>
        </g>
    </g>
</svg>