<?xml version="1.0" encoding="UTF-8"?>
<svg width="24px" height="24px" viewBox="0 0 24 24" version="1.1" xmlns="http://www.w3.org/2000/svg" xmlns:xlink="http://www.w3.org/1999/xlink">
    <title>编组 24</title>
    <g id="三维独立应用" stroke="none" stroke-width="1" fill="none" fill-rule="evenodd">
        <g id="温控监测-详情三级1" transform="translate(-1359, -123)">
            <g id="编组-17" transform="translate(1323, 116)">
                <g id="编组-24" transform="translate(36, 7)">
                    <rect id="矩形" fill="#000000" fill-rule="nonzero" opacity="0" x="0" y="0" width="24" height="24"></rect>
                    <g id="编组" transform="translate(12, 12) scale(-1, 1) translate(-12, -12)translate(2, 2)">
                        <path d="M19.9996059,0 C17.6189632,3.3182266 16.4284448,6.6470936 16.4284448,9.98541872 C16.4284448,13.3233498 17.6189632,16.662069 19.9996059,20 L14.2854328,20 C10.9519024,16.6482759 9.28612244,13.3091626 9.28612244,9.98226602 C9.28612244,6.65497538 10.9522965,3.32689656 14.2858269,0 L20,0 L19.9996059,0 Z" id="路径" fill="#F6FBFF"></path>
                        <path d="M9.99980295,17.9310345 L9.99980295,19.2118227 C9.99980295,19.647121 9.64693089,20 9.21164116,20 L0.788161814,20 C0.352872072,20 0,19.647121 0,19.2118227 L0,17.9310345 C0,17.4957362 0.352872064,17.1428572 0.788161814,17.1428572 L9.21164116,17.1428572 C9.6469309,17.1428572 9.99980295,17.4957362 9.99980295,17.9310345 L9.99980295,17.9310345 Z M7.85718508,12.2167488 L7.85718508,13.497537 C7.85718508,13.9328353 7.50431301,14.2857143 7.06902327,14.2857143 L0.788161814,14.2857143 C0.352872072,14.2857143 0,13.9328353 0,13.497537 L0,12.2167488 C0,12.0077112 0.0830382385,11.8072352 0.230847251,11.6594232 C0.378656263,11.5116113 0.579128304,11.4285714 0.788161814,11.4285714 L7.06902327,11.4285714 C7.50431302,11.4285714 7.85718508,11.7814505 7.85718508,12.2167488 L7.85718508,12.2167488 Z M7.85718508,6.50246306 L7.85718508,7.78325124 C7.85718508,8.21854956 7.50431301,8.57142857 7.06902327,8.57142857 L0.788161814,8.57142857 C0.352872072,8.57142857 0,8.21854956 0,7.78325124 L0,6.50246306 C0,6.06716473 0.352872064,5.71428572 0.788161814,5.71428572 L7.06902327,5.71428572 C7.50431302,5.71428572 7.85718508,6.06716473 7.85718508,6.50246306 L7.85718508,6.50246306 Z M9.99980295,0.788177345 L9.99980295,2.06896552 C9.99980295,2.50426384 9.6469309,2.85714287 9.21164116,2.85714287 L0.788161814,2.85714287 C0.352872064,2.85714287 0,2.50426385 0,2.06896552 L0,0.788177345 C0,0.352879017 0.352872064,0 0.788161814,0 L9.21164116,0 C9.6469309,0 9.99980295,0.352879025 9.99980295,0.788177345 Z" id="形状" fill="#5CC1FF"></path>
                    </g>
                </g>
            </g>
        </g>
    </g>
</svg>