<?xml version="1.0" encoding="UTF-8"?>
<svg width="24px" height="24px" viewBox="0 0 24 24" version="1.1" xmlns="http://www.w3.org/2000/svg" xmlns:xlink="http://www.w3.org/1999/xlink">
    <title>温控icon</title>
    <g id="三维独立应用" stroke="none" stroke-width="1" fill="none" fill-rule="evenodd">
        <g id="温控面板1" transform="translate(-1532, -507)">
            <g id="温控icon" transform="translate(1532, 507)">
                <rect id="矩形" fill="#000000" fill-rule="nonzero" opacity="0" x="0" y="0" width="24" height="24"></rect>
                <g id="编组" transform="translate(2, 2)">
                    <path d="M0,14.702793 L0,15.3616615 C0,17.923132 2.07686799,20 4.63833851,20 L15.3616615,20 C17.923132,20 20,17.923132 20,15.3616615 L20,14.702793 L0,14.702793 Z M12.6378611,17.187873 C12.3179757,17.187873 12.0577704,16.9276677 12.0577704,16.6077823 C12.0577704,16.2878969 12.3179757,16.0276916 12.6378611,16.0276916 C12.9577465,16.0276916 13.2179518,16.2878969 13.2179518,16.6077823 C13.2179518,16.9276677 12.9577465,17.187873 12.6378611,17.187873 Z M14.666985,17.187873 C14.3470995,17.187873 14.0868942,16.9276677 14.0868942,16.6077823 C14.0868942,16.2878969 14.3470995,16.0276916 14.666985,16.0276916 C14.9868704,16.0276916 15.2470757,16.2878969 15.2470757,16.6077823 C15.2470757,16.9276677 14.9868704,17.187873 14.666985,17.187873 Z M16.6961089,17.187873 C16.3762234,17.187873 16.1160181,16.9276677 16.1160181,16.6077823 C16.1160181,16.2878969 16.3762234,16.0276916 16.6961089,16.0276916 C17.0159943,16.0276916 17.2761996,16.2878969 17.2761996,16.6077823 C17.2761996,16.9276677 17.0159943,17.187873 16.6961089,17.187873 Z" id="形状" fill="#5CC1FF"></path>
                    <path d="M15.3616615,0 C17.923132,0 20,2.07686799 19.9976149,4.63833851 L19.9976149,13.8314634 L0,13.8314634 L0,4.63833851 C0,2.07686799 2.07686799,0 4.63833851,0 Z M4.81737885,2.26306995 C4.30651707,2.26306995 3.89114347,2.67844354 3.89114347,3.18930532 L3.89114347,8.19049893 C3.40176653,8.50083552 3.0747195,9.04273096 3.0747195,9.66340415 C3.0747195,10.6278348 3.85772261,11.4084507 4.81976605,11.4084507 C5.7818095,11.4084507 6.5624254,10.6254476 6.56004366,9.66340415 C6.56004366,9.04034376 6.23299117,8.49844832 5.74361423,8.19049893 L5.74361423,3.18930532 C5.74361423,2.67844354 5.32824063,2.26306995 4.81737885,2.26306995 Z M16.0348532,7.95177847 C15.5359274,7.95177847 15.1157794,8.26450227 14.9462879,8.70136071 C14.9176414,8.6965863 14.8937694,8.68465027 14.8651229,8.68465027 L9.23132012,8.68465027 C8.99259967,8.68465027 8.79684889,8.87801385 8.79684889,9.11912151 C8.79684889,9.35784197 8.99021246,9.55359274 9.23132012,9.55359274 L14.8651229,9.55359274 C14.8937694,9.55359274 14.9200286,9.54165672 14.9462879,9.53688231 C15.1157794,9.97374075 15.5383146,10.2864646 16.0348532,10.2864646 C16.6793984,10.2864646 17.2021962,9.76366675 17.2021962,9.11912151 C17.2021962,8.47457627 16.6793984,7.95177847 16.0348532,7.95177847 Z M10.3986632,3.3850561 C9.75411793,3.3850561 9.23132012,3.9078539 9.23132012,4.55239914 C9.23132012,5.19694438 9.75411793,5.71974218 10.3986632,5.71974218 C10.8975889,5.71974218 11.3177369,5.40701838 11.4872285,4.97015994 C11.5158749,4.97493435 11.539747,4.98687037 11.5683934,4.98687037 L17.2021962,4.98687037 C17.4433039,4.98687037 17.6366675,4.7911196 17.6366675,4.55239914 C17.6366675,4.31367868 17.4433039,4.11792791 17.2021962,4.11792791 L11.5683934,4.11792791 C11.539747,4.11792791 11.5134877,4.12986393 11.4872285,4.13463834 C11.3177369,3.6977799 10.8952017,3.3850561 10.3986632,3.3850561 Z" id="形状结合" fill="#F6FBFF"></path>
                </g>
            </g>
        </g>
    </g>
</svg>